<svg width="40" height="41" viewBox="0 0 40 41" xmlns="http://www.w3.org/2000/svg"><defs><linearGradient x1="88.285%" y1="-24.942%" x2="37.949%" y2="96.203%" id="a"><stop stop-color="#B2C1FF" offset="0%"/><stop stop-color="#4E4DFC" offset="100%"/></linearGradient></defs><g transform="translate(0 .5)" fill="none" fill-rule="evenodd"><circle fill="url(#a)" fill-rule="nonzero" cx="20" cy="20" r="20"/><g stroke="#FFF" stroke-linecap="round" stroke-linejoin="round" stroke-width="1.822"><path d="M22.727 20a2.727 2.727 0 1 1-5.454 0 2.727 2.727 0 0 1 5.454 0z"/><path d="M26.727 22.727a1.5 1.5 0 0 0 .3 1.655l.055.054a1.818 1.818 0 1 1-2.573 2.573l-.054-.054a1.5 1.5 0 0 0-1.655-.3 1.5 1.5 0 0 0-.91 1.372v.155a1.818 1.818 0 1 1-3.635 0V28.1a1.5 1.5 0 0 0-.982-1.373 1.5 1.5 0 0 0-1.655.3l-.054.055a1.818 1.818 0 1 1-2.573-2.573l.054-.054a1.5 1.5 0 0 0 .3-1.655 1.5 1.5 0 0 0-1.372-.91h-.155a1.818 1.818 0 1 1 0-3.635h.082a1.5 1.5 0 0 0 1.373-.982 1.5 1.5 0 0 0-.3-1.655l-.055-.054a1.818 1.818 0 1 1 2.573-2.573l.054.054a1.5 1.5 0 0 0 1.655.3h.073a1.5 1.5 0 0 0 .909-1.372v-.155a1.818 1.818 0 1 1 3.636 0v.082a1.5 1.5 0 0 0 .91 1.373 1.5 1.5 0 0 0 1.654-.3l.054-.055a1.818 1.818 0 1 1 2.573 2.573l-.054.054a1.5 1.5 0 0 0-.3 1.655v.073a1.5 1.5 0 0 0 1.372.909h.155a1.818 1.818 0 1 1 0 3.636H28.1a1.5 1.5 0 0 0-1.373.91z"/></g></g></svg>