<svg width="40" height="41" viewBox="0 0 40 41" xmlns="http://www.w3.org/2000/svg"><defs><linearGradient x1="21.217%" y1="94.944%" x2="77.25%" y2="0%" id="a"><stop stop-color="#6AC7FF" offset="0%"/><stop stop-color="#2C96FF" offset="98.184%"/></linearGradient></defs><g fill="none" fill-rule="evenodd"><path d="M20 0C8.954 0 0 8.954 0 20s8.954 20 20 20 20-8.954 20-20S31.046 0 20 0z" fill="url(#a)" transform="translate(0 .5)"/><g stroke="#FFF" stroke-linecap="round" stroke-linejoin="round" stroke-width="1.778"><path d="M23.028 10.5h-7.222c-.998 0-1.806.796-1.806 1.778V26.5c0 .982.808 1.778 1.806 1.778h10.833c.997 0 1.805-.796 1.805-1.778V15.833L23.028 10.5z"/><path d="M23.028 10.5v5.333h5.416m-3.611 8h-7.222m1.528-3.333h-1.806"/></g></g></svg>