<svg width="80" height="80" viewBox="0 0 48 48" xmlns="http://www.w3.org/2000/svg"><defs><linearGradient x1="21.217%" y1="94.944%" x2="76.232%" y2="1.724%" id="a"><stop stop-color="#6AA5FF" offset="0%"/><stop stop-color="#1456FF" offset="100%"/></linearGradient><filter x="-14.7%" y="-14.7%" width="141.2%" height="141.2%" filterUnits="objectBoundingBox" id="b"><feOffset dx="2" dy="2" in="SourceAlpha" result="shadowOffsetOuter1"/><feGaussianBlur stdDeviation="2" in="shadowOffsetOuter1" result="shadowBlurOuter1"/><feColorMatrix values="0 0 0 0 0 0 0 0 0 0 0 0 0 0 0 0 0 0 0.07 0" in="shadowBlurOuter1" result="shadowMatrixOuter1"/><feMerge><feMergeNode in="shadowMatrixOuter1"/><feMergeNode in="SourceGraphic"/></feMerge></filter></defs><g fill-rule="nonzero" fill="none"><circle fill="url(#a)" cx="24" cy="24" r="24"/><path d="M25.491 8.567a.825.825 0 0 0-1.157 0l-1.543 1.525a.803.803 0 0 0 0 1.144.825.825 0 0 0 1.158 0l1.542-1.525a.803.803 0 0 0 0-1.144zm-7.714-3.158a.821.821 0 0 0-1.398.572v2.157c0 .447.368.81.82.81.452 0 .82-.363.82-.81V5.98a.803.803 0 0 0-.242-.572zm10.908 10.785a.822.822 0 0 0-.578-.238h-2.182a.816.816 0 0 0-.82.81c0 .447.368.81.82.81h2.182c.452 0 .82-.363.82-.81a.803.803 0 0 0-.242-.572zM22.02 12c-2.651-2.621-7.27-3.108-10.19-.22-1.82 1.798-2.278 3.675-2.544 5.208-.266 1.532-.378 2.638-1.344 3.593l-2.314 2.288a1.884 1.884 0 0 0 0 2.67l2.7 2.669c.718.71 1.94.752 2.7 0l2.314-2.288c.966-.955 2.084-1.066 3.634-1.329 1.55-.263 3.448-.716 5.267-2.515 2.921-2.888 2.428-7.455-.223-10.076zm-1.157 1.144c2.053 2.03 2.463 5.573.223 7.788-1.53 1.513-2.903 1.817-4.381 2.068-1.26.214-2.655.367-3.893 1.251L9.63 21.104c.894-1.224 1.049-2.603 1.265-3.85.254-1.46.561-2.819 2.091-4.331 2.24-2.216 5.824-1.81 7.877.22zm-10.8-4.576a.825.825 0 0 0-1.157 0 .803.803 0 0 0 0 1.144l1.543 1.525a.825.825 0 0 0 1.157 0 .803.803 0 0 0 0-1.144l-1.542-1.525zM23.95 22.296a.825.825 0 0 0-1.158 0 .803.803 0 0 0 0 1.144l1.543 1.525a.825.825 0 0 0 1.157 0 .803.803 0 0 0 0-1.144l-1.542-1.525zm-15.428 0l3.085 3.05-.385.382-3.086-3.05.386-.382zM6.978 23.82l3.086 3.051-.193.19a.267.267 0 0 1-.386 0l-2.7-2.669c-.096-.095-.126-.256 0-.381l.193-.19z" transform="rotate(-45 27.743 11.513)" filter="url(#b)" fill="#FFF"/></g></svg>