<svg width="167" height="167" fill="none" xmlns="http://www.w3.org/2000/svg"><mask id="a" maskUnits="userSpaceOnUse" x="0" y="0" width="167" height="167"><path d="M83.5 167C37.384 167 0 129.616 0 83.5S37.384 0 83.5 0 167 37.384 167 83.5 129.616 167 83.5 167z" fill="#fff"/></mask><g mask="url(#a)"><path d="M83.5 167C37.384 167 0 129.616 0 83.5S37.384 0 83.5 0 167 37.384 167 83.5 129.616 167 83.5 167z" fill="url(#paint0_linear)"/></g><mask id="b" maskUnits="userSpaceOnUse" x="44" y="54" width="33" height="32"><path d="M44.424 54.935h17.683L76.665 74.05l-9.232 10.956-23.01-30.07z" fill="#fff"/></mask><g mask="url(#b)"><g filter="url(#filter0_d)"><path d="M44.424 54.935h17.683L76.665 74.05l-9.232 10.956-23.01-30.07z" fill="#000"/></g><path d="M44.424 54.935h17.683L76.665 74.05l-9.232 10.956-23.01-30.07z" fill="#fff"/></g><mask id="c" maskUnits="userSpaceOnUse" x="44" y="35" width="77" height="81"><path d="M105.151 35.82h14.968l-59.602 79.19H44.423l60.728-79.19z" fill="#fff"/></mask><g mask="url(#c)"><g filter="url(#filter1_d)"><path d="M105.151 35.82h14.968l-59.602 79.19H44.423l60.728-79.19z" fill="#000"/></g><path d="M105.151 35.82h14.968l-59.602 79.19H44.423l60.728-79.19z" fill="#fff"/></g><mask id="d" maskUnits="userSpaceOnUse" x="72" y="75" width="51" height="60"><path d="M72.363 92.056l5.508-16.641 44.962 58.71h-18.808l-31.662-42.07z" fill="#fff"/></mask><g mask="url(#d)"><g filter="url(#filter2_d)"><path d="M72.363 92.056l5.508-16.641 44.962 58.71h-18.808l-31.662-42.07z" fill="#000"/></g><path d="M72.363 92.056l5.508-16.641 44.962 58.71h-18.808l-31.662-42.07z" fill="#fff"/></g><path fill-rule="evenodd" clip-rule="evenodd" d="M62.1 54.5l14.4 19-9 11.5L44 54.5h18.1z" fill="#FC6D0B"/><defs><filter id="filter0_d" x="37.424" y="47.935" width="60.241" height="58.07" filterUnits="userSpaceOnUse" color-interpolation-filters="sRGB"><feFlood flood-opacity="0" result="BackgroundImageFix"/><feColorMatrix in="SourceAlpha" values="0 0 0 0 0 0 0 0 0 0 0 0 0 0 0 0 0 0 127 0"/><feOffset dx="7" dy="7"/><feGaussianBlur stdDeviation="7"/><feColorMatrix values="0 0 0 0 0.326952 0 0 0 0 0.372942 0 0 0 0 0.638659 0 0 0 0.414798 0"/><feBlend in2="BackgroundImageFix" result="effect1_dropShadow"/><feBlend in="SourceGraphic" in2="effect1_dropShadow" result="shape"/></filter><filter id="filter1_d" x="37.423" y="28.82" width="103.696" height="107.19" filterUnits="userSpaceOnUse" color-interpolation-filters="sRGB"><feFlood flood-opacity="0" result="BackgroundImageFix"/><feColorMatrix in="SourceAlpha" values="0 0 0 0 0 0 0 0 0 0 0 0 0 0 0 0 0 0 127 0"/><feOffset dx="7" dy="7"/><feGaussianBlur stdDeviation="7"/><feColorMatrix values="0 0 0 0 0.326952 0 0 0 0 0.372942 0 0 0 0 0.638659 0 0 0 0.414798 0"/><feBlend in2="BackgroundImageFix" result="effect1_dropShadow"/><feBlend in="SourceGraphic" in2="effect1_dropShadow" result="shape"/></filter><filter id="filter2_d" x="65.363" y="68.415" width="78.47" height="86.71" filterUnits="userSpaceOnUse" color-interpolation-filters="sRGB"><feFlood flood-opacity="0" result="BackgroundImageFix"/><feColorMatrix in="SourceAlpha" values="0 0 0 0 0 0 0 0 0 0 0 0 0 0 0 0 0 0 127 0"/><feOffset dx="7" dy="7"/><feGaussianBlur stdDeviation="7"/><feColorMatrix values="0 0 0 0 0.326952 0 0 0 0 0.372942 0 0 0 0 0.638659 0 0 0 0.414798 0"/><feBlend in2="BackgroundImageFix" result="effect1_dropShadow"/><feBlend in="SourceGraphic" in2="effect1_dropShadow" result="shape"/></filter><linearGradient id="paint0_linear" x1="2.933" y1="200.494" x2="115.973" y2="20.729" gradientUnits="userSpaceOnUse"><stop stop-color="#171B2F"/><stop offset=".998" stop-color="#242B4D"/></linearGradient></defs></svg>